<?xml version="1.0" encoding="UTF-8"?>
<svg xmlns="http://www.w3.org/2000/svg" xmlns:xlink="http://www.w3.org/1999/xlink" version="1.1" width="500px" height="500px" viewBox="0 0 500 500"><defs><rect id="r0" width="11" height="11" fill="#000000"/></defs><rect x="0" y="0" width="500" height="500" fill="#fefefe"/><use x="46" y="46" xlink:href="#r0"/><use x="57" y="46" xlink:href="#r0"/><use x="68" y="46" xlink:href="#r0"/><use x="79" y="46" xlink:href="#r0"/><use x="90" y="46" xlink:href="#r0"/><use x="101" y="46" xlink:href="#r0"/><use x="112" y="46" xlink:href="#r0"/><use x="145" y="46" xlink:href="#r0"/><use x="200" y="46" xlink:href="#r0"/><use x="255" y="46" xlink:href="#r0"/><use x="277" y="46" xlink:href="#r0"/><use x="288" y="46" xlink:href="#r0"/><use x="299" y="46" xlink:href="#r0"/><use x="321" y="46" xlink:href="#r0"/><use x="354" y="46" xlink:href="#r0"/><use x="376" y="46" xlink:href="#r0"/><use x="387" y="46" xlink:href="#r0"/><use x="398" y="46" xlink:href="#r0"/><use x="409" y="46" xlink:href="#r0"/><use x="420" y="46" xlink:href="#r0"/><use x="431" y="46" xlink:href="#r0"/><use x="442" y="46" xlink:href="#r0"/><use x="46" y="57" xlink:href="#r0"/><use x="112" y="57" xlink:href="#r0"/><use x="134" y="57" xlink:href="#r0"/><use x="145" y="57" xlink:href="#r0"/><use x="167" y="57" xlink:href="#r0"/><use x="178" y="57" xlink:href="#r0"/><use x="189" y="57" xlink:href="#r0"/><use x="211" y="57" xlink:href="#r0"/><use x="222" y="57" xlink:href="#r0"/><use x="233" y="57" xlink:href="#r0"/><use x="244" y="57" xlink:href="#r0"/><use x="266" y="57" xlink:href="#r0"/><use x="343" y="57" xlink:href="#r0"/><use x="354" y="57" xlink:href="#r0"/><use x="376" y="57" xlink:href="#r0"/><use x="442" y="57" xlink:href="#r0"/><use x="46" y="68" xlink:href="#r0"/><use x="68" y="68" xlink:href="#r0"/><use x="79" y="68" xlink:href="#r0"/><use x="90" y="68" xlink:href="#r0"/><use x="112" y="68" xlink:href="#r0"/><use x="145" y="68" xlink:href="#r0"/><use x="156" y="68" xlink:href="#r0"/><use x="167" y="68" xlink:href="#r0"/><use x="211" y="68" xlink:href="#r0"/><use x="277" y="68" xlink:href="#r0"/><use x="299" y="68" xlink:href="#r0"/><use x="310" y="68" xlink:href="#r0"/><use x="376" y="68" xlink:href="#r0"/><use x="398" y="68" xlink:href="#r0"/><use x="409" y="68" xlink:href="#r0"/><use x="420" y="68" xlink:href="#r0"/><use x="442" y="68" xlink:href="#r0"/><use x="46" y="79" xlink:href="#r0"/><use x="68" y="79" xlink:href="#r0"/><use x="79" y="79" xlink:href="#r0"/><use x="90" y="79" xlink:href="#r0"/><use x="112" y="79" xlink:href="#r0"/><use x="134" y="79" xlink:href="#r0"/><use x="145" y="79" xlink:href="#r0"/><use x="167" y="79" xlink:href="#r0"/><use x="189" y="79" xlink:href="#r0"/><use x="200" y="79" xlink:href="#r0"/><use x="222" y="79" xlink:href="#r0"/><use x="233" y="79" xlink:href="#r0"/><use x="244" y="79" xlink:href="#r0"/><use x="288" y="79" xlink:href="#r0"/><use x="310" y="79" xlink:href="#r0"/><use x="321" y="79" xlink:href="#r0"/><use x="332" y="79" xlink:href="#r0"/><use x="343" y="79" xlink:href="#r0"/><use x="376" y="79" xlink:href="#r0"/><use x="398" y="79" xlink:href="#r0"/><use x="409" y="79" xlink:href="#r0"/><use x="420" y="79" xlink:href="#r0"/><use x="442" y="79" xlink:href="#r0"/><use x="46" y="90" xlink:href="#r0"/><use x="68" y="90" xlink:href="#r0"/><use x="79" y="90" xlink:href="#r0"/><use x="90" y="90" xlink:href="#r0"/><use x="112" y="90" xlink:href="#r0"/><use x="156" y="90" xlink:href="#r0"/><use x="178" y="90" xlink:href="#r0"/><use x="200" y="90" xlink:href="#r0"/><use x="222" y="90" xlink:href="#r0"/><use x="233" y="90" xlink:href="#r0"/><use x="244" y="90" xlink:href="#r0"/><use x="255" y="90" xlink:href="#r0"/><use x="266" y="90" xlink:href="#r0"/><use x="343" y="90" xlink:href="#r0"/><use x="354" y="90" xlink:href="#r0"/><use x="376" y="90" xlink:href="#r0"/><use x="398" y="90" xlink:href="#r0"/><use x="409" y="90" xlink:href="#r0"/><use x="420" y="90" xlink:href="#r0"/><use x="442" y="90" xlink:href="#r0"/><use x="46" y="101" xlink:href="#r0"/><use x="112" y="101" xlink:href="#r0"/><use x="134" y="101" xlink:href="#r0"/><use x="156" y="101" xlink:href="#r0"/><use x="189" y="101" xlink:href="#r0"/><use x="211" y="101" xlink:href="#r0"/><use x="233" y="101" xlink:href="#r0"/><use x="266" y="101" xlink:href="#r0"/><use x="288" y="101" xlink:href="#r0"/><use x="332" y="101" xlink:href="#r0"/><use x="343" y="101" xlink:href="#r0"/><use x="354" y="101" xlink:href="#r0"/><use x="376" y="101" xlink:href="#r0"/><use x="442" y="101" xlink:href="#r0"/><use x="46" y="112" xlink:href="#r0"/><use x="57" y="112" xlink:href="#r0"/><use x="68" y="112" xlink:href="#r0"/><use x="79" y="112" xlink:href="#r0"/><use x="90" y="112" xlink:href="#r0"/><use x="101" y="112" xlink:href="#r0"/><use x="112" y="112" xlink:href="#r0"/><use x="134" y="112" xlink:href="#r0"/><use x="156" y="112" xlink:href="#r0"/><use x="178" y="112" xlink:href="#r0"/><use x="200" y="112" xlink:href="#r0"/><use x="222" y="112" xlink:href="#r0"/><use x="244" y="112" xlink:href="#r0"/><use x="266" y="112" xlink:href="#r0"/><use x="288" y="112" xlink:href="#r0"/><use x="310" y="112" xlink:href="#r0"/><use x="332" y="112" xlink:href="#r0"/><use x="354" y="112" xlink:href="#r0"/><use x="376" y="112" xlink:href="#r0"/><use x="387" y="112" xlink:href="#r0"/><use x="398" y="112" xlink:href="#r0"/><use x="409" y="112" xlink:href="#r0"/><use x="420" y="112" xlink:href="#r0"/><use x="431" y="112" xlink:href="#r0"/><use x="442" y="112" xlink:href="#r0"/><use x="178" y="123" xlink:href="#r0"/><use x="211" y="123" xlink:href="#r0"/><use x="222" y="123" xlink:href="#r0"/><use x="244" y="123" xlink:href="#r0"/><use x="277" y="123" xlink:href="#r0"/><use x="310" y="123" xlink:href="#r0"/><use x="332" y="123" xlink:href="#r0"/><use x="46" y="134" xlink:href="#r0"/><use x="57" y="134" xlink:href="#r0"/><use x="68" y="134" xlink:href="#r0"/><use x="79" y="134" xlink:href="#r0"/><use x="90" y="134" xlink:href="#r0"/><use x="112" y="134" xlink:href="#r0"/><use x="123" y="134" xlink:href="#r0"/><use x="134" y="134" xlink:href="#r0"/><use x="145" y="134" xlink:href="#r0"/><use x="156" y="134" xlink:href="#r0"/><use x="178" y="134" xlink:href="#r0"/><use x="189" y="134" xlink:href="#r0"/><use x="200" y="134" xlink:href="#r0"/><use x="211" y="134" xlink:href="#r0"/><use x="222" y="134" xlink:href="#r0"/><use x="255" y="134" xlink:href="#r0"/><use x="266" y="134" xlink:href="#r0"/><use x="288" y="134" xlink:href="#r0"/><use x="310" y="134" xlink:href="#r0"/><use x="321" y="134" xlink:href="#r0"/><use x="332" y="134" xlink:href="#r0"/><use x="365" y="134" xlink:href="#r0"/><use x="387" y="134" xlink:href="#r0"/><use x="409" y="134" xlink:href="#r0"/><use x="431" y="134" xlink:href="#r0"/><use x="46" y="145" xlink:href="#r0"/><use x="57" y="145" xlink:href="#r0"/><use x="68" y="145" xlink:href="#r0"/><use x="90" y="145" xlink:href="#r0"/><use x="123" y="145" xlink:href="#r0"/><use x="200" y="145" xlink:href="#r0"/><use x="211" y="145" xlink:href="#r0"/><use x="222" y="145" xlink:href="#r0"/><use x="244" y="145" xlink:href="#r0"/><use x="255" y="145" xlink:href="#r0"/><use x="266" y="145" xlink:href="#r0"/><use x="354" y="145" xlink:href="#r0"/><use x="387" y="145" xlink:href="#r0"/><use x="409" y="145" xlink:href="#r0"/><use x="420" y="145" xlink:href="#r0"/><use x="431" y="145" xlink:href="#r0"/><use x="57" y="156" xlink:href="#r0"/><use x="90" y="156" xlink:href="#r0"/><use x="112" y="156" xlink:href="#r0"/><use x="134" y="156" xlink:href="#r0"/><use x="145" y="156" xlink:href="#r0"/><use x="167" y="156" xlink:href="#r0"/><use x="178" y="156" xlink:href="#r0"/><use x="211" y="156" xlink:href="#r0"/><use x="244" y="156" xlink:href="#r0"/><use x="266" y="156" xlink:href="#r0"/><use x="277" y="156" xlink:href="#r0"/><use x="310" y="156" xlink:href="#r0"/><use x="321" y="156" xlink:href="#r0"/><use x="343" y="156" xlink:href="#r0"/><use x="354" y="156" xlink:href="#r0"/><use x="365" y="156" xlink:href="#r0"/><use x="387" y="156" xlink:href="#r0"/><use x="398" y="156" xlink:href="#r0"/><use x="409" y="156" xlink:href="#r0"/><use x="420" y="156" xlink:href="#r0"/><use x="442" y="156" xlink:href="#r0"/><use x="79" y="167" xlink:href="#r0"/><use x="156" y="167" xlink:href="#r0"/><use x="167" y="167" xlink:href="#r0"/><use x="211" y="167" xlink:href="#r0"/><use x="255" y="167" xlink:href="#r0"/><use x="266" y="167" xlink:href="#r0"/><use x="277" y="167" xlink:href="#r0"/><use x="288" y="167" xlink:href="#r0"/><use x="332" y="167" xlink:href="#r0"/><use x="376" y="167" xlink:href="#r0"/><use x="387" y="167" xlink:href="#r0"/><use x="398" y="167" xlink:href="#r0"/><use x="409" y="167" xlink:href="#r0"/><use x="431" y="167" xlink:href="#r0"/><use x="79" y="178" xlink:href="#r0"/><use x="90" y="178" xlink:href="#r0"/><use x="101" y="178" xlink:href="#r0"/><use x="112" y="178" xlink:href="#r0"/><use x="134" y="178" xlink:href="#r0"/><use x="167" y="178" xlink:href="#r0"/><use x="178" y="178" xlink:href="#r0"/><use x="200" y="178" xlink:href="#r0"/><use x="255" y="178" xlink:href="#r0"/><use x="310" y="178" xlink:href="#r0"/><use x="321" y="178" xlink:href="#r0"/><use x="332" y="178" xlink:href="#r0"/><use x="343" y="178" xlink:href="#r0"/><use x="365" y="178" xlink:href="#r0"/><use x="376" y="178" xlink:href="#r0"/><use x="398" y="178" xlink:href="#r0"/><use x="409" y="178" xlink:href="#r0"/><use x="420" y="178" xlink:href="#r0"/><use x="442" y="178" xlink:href="#r0"/><use x="46" y="189" xlink:href="#r0"/><use x="68" y="189" xlink:href="#r0"/><use x="79" y="189" xlink:href="#r0"/><use x="101" y="189" xlink:href="#r0"/><use x="123" y="189" xlink:href="#r0"/><use x="134" y="189" xlink:href="#r0"/><use x="156" y="189" xlink:href="#r0"/><use x="178" y="189" xlink:href="#r0"/><use x="200" y="189" xlink:href="#r0"/><use x="211" y="189" xlink:href="#r0"/><use x="222" y="189" xlink:href="#r0"/><use x="233" y="189" xlink:href="#r0"/><use x="244" y="189" xlink:href="#r0"/><use x="266" y="189" xlink:href="#r0"/><use x="277" y="189" xlink:href="#r0"/><use x="288" y="189" xlink:href="#r0"/><use x="299" y="189" xlink:href="#r0"/><use x="310" y="189" xlink:href="#r0"/><use x="321" y="189" xlink:href="#r0"/><use x="354" y="189" xlink:href="#r0"/><use x="420" y="189" xlink:href="#r0"/><use x="431" y="189" xlink:href="#r0"/><use x="46" y="200" xlink:href="#r0"/><use x="57" y="200" xlink:href="#r0"/><use x="90" y="200" xlink:href="#r0"/><use x="112" y="200" xlink:href="#r0"/><use x="123" y="200" xlink:href="#r0"/><use x="189" y="200" xlink:href="#r0"/><use x="211" y="200" xlink:href="#r0"/><use x="222" y="200" xlink:href="#r0"/><use x="233" y="200" xlink:href="#r0"/><use x="244" y="200" xlink:href="#r0"/><use x="277" y="200" xlink:href="#r0"/><use x="310" y="200" xlink:href="#r0"/><use x="321" y="200" xlink:href="#r0"/><use x="343" y="200" xlink:href="#r0"/><use x="354" y="200" xlink:href="#r0"/><use x="376" y="200" xlink:href="#r0"/><use x="420" y="200" xlink:href="#r0"/><use x="431" y="200" xlink:href="#r0"/><use x="442" y="200" xlink:href="#r0"/><use x="57" y="211" xlink:href="#r0"/><use x="79" y="211" xlink:href="#r0"/><use x="90" y="211" xlink:href="#r0"/><use x="101" y="211" xlink:href="#r0"/><use x="134" y="211" xlink:href="#r0"/><use x="167" y="211" xlink:href="#r0"/><use x="178" y="211" xlink:href="#r0"/><use x="200" y="211" xlink:href="#r0"/><use x="211" y="211" xlink:href="#r0"/><use x="244" y="211" xlink:href="#r0"/><use x="266" y="211" xlink:href="#r0"/><use x="277" y="211" xlink:href="#r0"/><use x="310" y="211" xlink:href="#r0"/><use x="332" y="211" xlink:href="#r0"/><use x="343" y="211" xlink:href="#r0"/><use x="365" y="211" xlink:href="#r0"/><use x="376" y="211" xlink:href="#r0"/><use x="387" y="211" xlink:href="#r0"/><use x="409" y="211" xlink:href="#r0"/><use x="442" y="211" xlink:href="#r0"/><use x="112" y="222" xlink:href="#r0"/><use x="134" y="222" xlink:href="#r0"/><use x="145" y="222" xlink:href="#r0"/><use x="156" y="222" xlink:href="#r0"/><use x="167" y="222" xlink:href="#r0"/><use x="178" y="222" xlink:href="#r0"/><use x="200" y="222" xlink:href="#r0"/><use x="233" y="222" xlink:href="#r0"/><use x="255" y="222" xlink:href="#r0"/><use x="288" y="222" xlink:href="#r0"/><use x="321" y="222" xlink:href="#r0"/><use x="365" y="222" xlink:href="#r0"/><use x="376" y="222" xlink:href="#r0"/><use x="387" y="222" xlink:href="#r0"/><use x="398" y="222" xlink:href="#r0"/><use x="409" y="222" xlink:href="#r0"/><use x="420" y="222" xlink:href="#r0"/><use x="442" y="222" xlink:href="#r0"/><use x="46" y="233" xlink:href="#r0"/><use x="57" y="233" xlink:href="#r0"/><use x="90" y="233" xlink:href="#r0"/><use x="101" y="233" xlink:href="#r0"/><use x="123" y="233" xlink:href="#r0"/><use x="145" y="233" xlink:href="#r0"/><use x="189" y="233" xlink:href="#r0"/><use x="200" y="233" xlink:href="#r0"/><use x="211" y="233" xlink:href="#r0"/><use x="222" y="233" xlink:href="#r0"/><use x="244" y="233" xlink:href="#r0"/><use x="255" y="233" xlink:href="#r0"/><use x="266" y="233" xlink:href="#r0"/><use x="277" y="233" xlink:href="#r0"/><use x="299" y="233" xlink:href="#r0"/><use x="310" y="233" xlink:href="#r0"/><use x="321" y="233" xlink:href="#r0"/><use x="332" y="233" xlink:href="#r0"/><use x="354" y="233" xlink:href="#r0"/><use x="365" y="233" xlink:href="#r0"/><use x="387" y="233" xlink:href="#r0"/><use x="420" y="233" xlink:href="#r0"/><use x="431" y="233" xlink:href="#r0"/><use x="90" y="244" xlink:href="#r0"/><use x="112" y="244" xlink:href="#r0"/><use x="123" y="244" xlink:href="#r0"/><use x="134" y="244" xlink:href="#r0"/><use x="156" y="244" xlink:href="#r0"/><use x="189" y="244" xlink:href="#r0"/><use x="211" y="244" xlink:href="#r0"/><use x="222" y="244" xlink:href="#r0"/><use x="233" y="244" xlink:href="#r0"/><use x="244" y="244" xlink:href="#r0"/><use x="277" y="244" xlink:href="#r0"/><use x="321" y="244" xlink:href="#r0"/><use x="332" y="244" xlink:href="#r0"/><use x="343" y="244" xlink:href="#r0"/><use x="354" y="244" xlink:href="#r0"/><use x="376" y="244" xlink:href="#r0"/><use x="387" y="244" xlink:href="#r0"/><use x="398" y="244" xlink:href="#r0"/><use x="420" y="244" xlink:href="#r0"/><use x="431" y="244" xlink:href="#r0"/><use x="442" y="244" xlink:href="#r0"/><use x="46" y="255" xlink:href="#r0"/><use x="57" y="255" xlink:href="#r0"/><use x="68" y="255" xlink:href="#r0"/><use x="79" y="255" xlink:href="#r0"/><use x="101" y="255" xlink:href="#r0"/><use x="145" y="255" xlink:href="#r0"/><use x="167" y="255" xlink:href="#r0"/><use x="244" y="255" xlink:href="#r0"/><use x="255" y="255" xlink:href="#r0"/><use x="277" y="255" xlink:href="#r0"/><use x="288" y="255" xlink:href="#r0"/><use x="310" y="255" xlink:href="#r0"/><use x="332" y="255" xlink:href="#r0"/><use x="343" y="255" xlink:href="#r0"/><use x="354" y="255" xlink:href="#r0"/><use x="442" y="255" xlink:href="#r0"/><use x="46" y="266" xlink:href="#r0"/><use x="57" y="266" xlink:href="#r0"/><use x="90" y="266" xlink:href="#r0"/><use x="112" y="266" xlink:href="#r0"/><use x="123" y="266" xlink:href="#r0"/><use x="145" y="266" xlink:href="#r0"/><use x="156" y="266" xlink:href="#r0"/><use x="167" y="266" xlink:href="#r0"/><use x="178" y="266" xlink:href="#r0"/><use x="200" y="266" xlink:href="#r0"/><use x="211" y="266" xlink:href="#r0"/><use x="222" y="266" xlink:href="#r0"/><use x="233" y="266" xlink:href="#r0"/><use x="255" y="266" xlink:href="#r0"/><use x="266" y="266" xlink:href="#r0"/><use x="288" y="266" xlink:href="#r0"/><use x="321" y="266" xlink:href="#r0"/><use x="332" y="266" xlink:href="#r0"/><use x="343" y="266" xlink:href="#r0"/><use x="354" y="266" xlink:href="#r0"/><use x="365" y="266" xlink:href="#r0"/><use x="376" y="266" xlink:href="#r0"/><use x="387" y="266" xlink:href="#r0"/><use x="398" y="266" xlink:href="#r0"/><use x="409" y="266" xlink:href="#r0"/><use x="420" y="266" xlink:href="#r0"/><use x="431" y="266" xlink:href="#r0"/><use x="442" y="266" xlink:href="#r0"/><use x="46" y="277" xlink:href="#r0"/><use x="68" y="277" xlink:href="#r0"/><use x="123" y="277" xlink:href="#r0"/><use x="134" y="277" xlink:href="#r0"/><use x="145" y="277" xlink:href="#r0"/><use x="167" y="277" xlink:href="#r0"/><use x="189" y="277" xlink:href="#r0"/><use x="200" y="277" xlink:href="#r0"/><use x="233" y="277" xlink:href="#r0"/><use x="244" y="277" xlink:href="#r0"/><use x="266" y="277" xlink:href="#r0"/><use x="299" y="277" xlink:href="#r0"/><use x="310" y="277" xlink:href="#r0"/><use x="321" y="277" xlink:href="#r0"/><use x="354" y="277" xlink:href="#r0"/><use x="387" y="277" xlink:href="#r0"/><use x="420" y="277" xlink:href="#r0"/><use x="431" y="277" xlink:href="#r0"/><use x="46" y="288" xlink:href="#r0"/><use x="57" y="288" xlink:href="#r0"/><use x="68" y="288" xlink:href="#r0"/><use x="90" y="288" xlink:href="#r0"/><use x="112" y="288" xlink:href="#r0"/><use x="145" y="288" xlink:href="#r0"/><use x="156" y="288" xlink:href="#r0"/><use x="211" y="288" xlink:href="#r0"/><use x="222" y="288" xlink:href="#r0"/><use x="233" y="288" xlink:href="#r0"/><use x="266" y="288" xlink:href="#r0"/><use x="277" y="288" xlink:href="#r0"/><use x="288" y="288" xlink:href="#r0"/><use x="310" y="288" xlink:href="#r0"/><use x="321" y="288" xlink:href="#r0"/><use x="343" y="288" xlink:href="#r0"/><use x="354" y="288" xlink:href="#r0"/><use x="376" y="288" xlink:href="#r0"/><use x="387" y="288" xlink:href="#r0"/><use x="398" y="288" xlink:href="#r0"/><use x="409" y="288" xlink:href="#r0"/><use x="431" y="288" xlink:href="#r0"/><use x="442" y="288" xlink:href="#r0"/><use x="57" y="299" xlink:href="#r0"/><use x="178" y="299" xlink:href="#r0"/><use x="200" y="299" xlink:href="#r0"/><use x="266" y="299" xlink:href="#r0"/><use x="277" y="299" xlink:href="#r0"/><use x="332" y="299" xlink:href="#r0"/><use x="343" y="299" xlink:href="#r0"/><use x="365" y="299" xlink:href="#r0"/><use x="376" y="299" xlink:href="#r0"/><use x="387" y="299" xlink:href="#r0"/><use x="398" y="299" xlink:href="#r0"/><use x="442" y="299" xlink:href="#r0"/><use x="46" y="310" xlink:href="#r0"/><use x="57" y="310" xlink:href="#r0"/><use x="79" y="310" xlink:href="#r0"/><use x="90" y="310" xlink:href="#r0"/><use x="112" y="310" xlink:href="#r0"/><use x="123" y="310" xlink:href="#r0"/><use x="134" y="310" xlink:href="#r0"/><use x="145" y="310" xlink:href="#r0"/><use x="200" y="310" xlink:href="#r0"/><use x="211" y="310" xlink:href="#r0"/><use x="233" y="310" xlink:href="#r0"/><use x="244" y="310" xlink:href="#r0"/><use x="288" y="310" xlink:href="#r0"/><use x="310" y="310" xlink:href="#r0"/><use x="321" y="310" xlink:href="#r0"/><use x="332" y="310" xlink:href="#r0"/><use x="343" y="310" xlink:href="#r0"/><use x="354" y="310" xlink:href="#r0"/><use x="365" y="310" xlink:href="#r0"/><use x="376" y="310" xlink:href="#r0"/><use x="398" y="310" xlink:href="#r0"/><use x="409" y="310" xlink:href="#r0"/><use x="420" y="310" xlink:href="#r0"/><use x="431" y="310" xlink:href="#r0"/><use x="442" y="310" xlink:href="#r0"/><use x="46" y="321" xlink:href="#r0"/><use x="57" y="321" xlink:href="#r0"/><use x="101" y="321" xlink:href="#r0"/><use x="134" y="321" xlink:href="#r0"/><use x="167" y="321" xlink:href="#r0"/><use x="189" y="321" xlink:href="#r0"/><use x="211" y="321" xlink:href="#r0"/><use x="222" y="321" xlink:href="#r0"/><use x="255" y="321" xlink:href="#r0"/><use x="266" y="321" xlink:href="#r0"/><use x="277" y="321" xlink:href="#r0"/><use x="288" y="321" xlink:href="#r0"/><use x="299" y="321" xlink:href="#r0"/><use x="310" y="321" xlink:href="#r0"/><use x="354" y="321" xlink:href="#r0"/><use x="365" y="321" xlink:href="#r0"/><use x="387" y="321" xlink:href="#r0"/><use x="420" y="321" xlink:href="#r0"/><use x="431" y="321" xlink:href="#r0"/><use x="46" y="332" xlink:href="#r0"/><use x="68" y="332" xlink:href="#r0"/><use x="79" y="332" xlink:href="#r0"/><use x="101" y="332" xlink:href="#r0"/><use x="112" y="332" xlink:href="#r0"/><use x="134" y="332" xlink:href="#r0"/><use x="211" y="332" xlink:href="#r0"/><use x="244" y="332" xlink:href="#r0"/><use x="332" y="332" xlink:href="#r0"/><use x="343" y="332" xlink:href="#r0"/><use x="354" y="332" xlink:href="#r0"/><use x="365" y="332" xlink:href="#r0"/><use x="376" y="332" xlink:href="#r0"/><use x="420" y="332" xlink:href="#r0"/><use x="431" y="332" xlink:href="#r0"/><use x="442" y="332" xlink:href="#r0"/><use x="46" y="343" xlink:href="#r0"/><use x="90" y="343" xlink:href="#r0"/><use x="101" y="343" xlink:href="#r0"/><use x="123" y="343" xlink:href="#r0"/><use x="156" y="343" xlink:href="#r0"/><use x="167" y="343" xlink:href="#r0"/><use x="200" y="343" xlink:href="#r0"/><use x="244" y="343" xlink:href="#r0"/><use x="255" y="343" xlink:href="#r0"/><use x="266" y="343" xlink:href="#r0"/><use x="277" y="343" xlink:href="#r0"/><use x="288" y="343" xlink:href="#r0"/><use x="310" y="343" xlink:href="#r0"/><use x="332" y="343" xlink:href="#r0"/><use x="354" y="343" xlink:href="#r0"/><use x="398" y="343" xlink:href="#r0"/><use x="442" y="343" xlink:href="#r0"/><use x="46" y="354" xlink:href="#r0"/><use x="101" y="354" xlink:href="#r0"/><use x="112" y="354" xlink:href="#r0"/><use x="123" y="354" xlink:href="#r0"/><use x="167" y="354" xlink:href="#r0"/><use x="178" y="354" xlink:href="#r0"/><use x="189" y="354" xlink:href="#r0"/><use x="211" y="354" xlink:href="#r0"/><use x="222" y="354" xlink:href="#r0"/><use x="233" y="354" xlink:href="#r0"/><use x="255" y="354" xlink:href="#r0"/><use x="288" y="354" xlink:href="#r0"/><use x="299" y="354" xlink:href="#r0"/><use x="321" y="354" xlink:href="#r0"/><use x="332" y="354" xlink:href="#r0"/><use x="354" y="354" xlink:href="#r0"/><use x="365" y="354" xlink:href="#r0"/><use x="376" y="354" xlink:href="#r0"/><use x="387" y="354" xlink:href="#r0"/><use x="398" y="354" xlink:href="#r0"/><use x="409" y="354" xlink:href="#r0"/><use x="420" y="354" xlink:href="#r0"/><use x="134" y="365" xlink:href="#r0"/><use x="156" y="365" xlink:href="#r0"/><use x="200" y="365" xlink:href="#r0"/><use x="211" y="365" xlink:href="#r0"/><use x="222" y="365" xlink:href="#r0"/><use x="244" y="365" xlink:href="#r0"/><use x="255" y="365" xlink:href="#r0"/><use x="266" y="365" xlink:href="#r0"/><use x="299" y="365" xlink:href="#r0"/><use x="321" y="365" xlink:href="#r0"/><use x="332" y="365" xlink:href="#r0"/><use x="343" y="365" xlink:href="#r0"/><use x="354" y="365" xlink:href="#r0"/><use x="398" y="365" xlink:href="#r0"/><use x="409" y="365" xlink:href="#r0"/><use x="46" y="376" xlink:href="#r0"/><use x="57" y="376" xlink:href="#r0"/><use x="68" y="376" xlink:href="#r0"/><use x="79" y="376" xlink:href="#r0"/><use x="90" y="376" xlink:href="#r0"/><use x="101" y="376" xlink:href="#r0"/><use x="112" y="376" xlink:href="#r0"/><use x="134" y="376" xlink:href="#r0"/><use x="145" y="376" xlink:href="#r0"/><use x="189" y="376" xlink:href="#r0"/><use x="200" y="376" xlink:href="#r0"/><use x="211" y="376" xlink:href="#r0"/><use x="222" y="376" xlink:href="#r0"/><use x="244" y="376" xlink:href="#r0"/><use x="266" y="376" xlink:href="#r0"/><use x="310" y="376" xlink:href="#r0"/><use x="354" y="376" xlink:href="#r0"/><use x="376" y="376" xlink:href="#r0"/><use x="398" y="376" xlink:href="#r0"/><use x="420" y="376" xlink:href="#r0"/><use x="431" y="376" xlink:href="#r0"/><use x="442" y="376" xlink:href="#r0"/><use x="46" y="387" xlink:href="#r0"/><use x="112" y="387" xlink:href="#r0"/><use x="200" y="387" xlink:href="#r0"/><use x="211" y="387" xlink:href="#r0"/><use x="255" y="387" xlink:href="#r0"/><use x="277" y="387" xlink:href="#r0"/><use x="288" y="387" xlink:href="#r0"/><use x="299" y="387" xlink:href="#r0"/><use x="310" y="387" xlink:href="#r0"/><use x="332" y="387" xlink:href="#r0"/><use x="343" y="387" xlink:href="#r0"/><use x="354" y="387" xlink:href="#r0"/><use x="398" y="387" xlink:href="#r0"/><use x="431" y="387" xlink:href="#r0"/><use x="442" y="387" xlink:href="#r0"/><use x="46" y="398" xlink:href="#r0"/><use x="68" y="398" xlink:href="#r0"/><use x="79" y="398" xlink:href="#r0"/><use x="90" y="398" xlink:href="#r0"/><use x="112" y="398" xlink:href="#r0"/><use x="134" y="398" xlink:href="#r0"/><use x="156" y="398" xlink:href="#r0"/><use x="178" y="398" xlink:href="#r0"/><use x="189" y="398" xlink:href="#r0"/><use x="200" y="398" xlink:href="#r0"/><use x="211" y="398" xlink:href="#r0"/><use x="266" y="398" xlink:href="#r0"/><use x="277" y="398" xlink:href="#r0"/><use x="288" y="398" xlink:href="#r0"/><use x="321" y="398" xlink:href="#r0"/><use x="343" y="398" xlink:href="#r0"/><use x="354" y="398" xlink:href="#r0"/><use x="365" y="398" xlink:href="#r0"/><use x="376" y="398" xlink:href="#r0"/><use x="387" y="398" xlink:href="#r0"/><use x="398" y="398" xlink:href="#r0"/><use x="409" y="398" xlink:href="#r0"/><use x="420" y="398" xlink:href="#r0"/><use x="431" y="398" xlink:href="#r0"/><use x="442" y="398" xlink:href="#r0"/><use x="46" y="409" xlink:href="#r0"/><use x="68" y="409" xlink:href="#r0"/><use x="79" y="409" xlink:href="#r0"/><use x="90" y="409" xlink:href="#r0"/><use x="112" y="409" xlink:href="#r0"/><use x="134" y="409" xlink:href="#r0"/><use x="200" y="409" xlink:href="#r0"/><use x="222" y="409" xlink:href="#r0"/><use x="233" y="409" xlink:href="#r0"/><use x="244" y="409" xlink:href="#r0"/><use x="266" y="409" xlink:href="#r0"/><use x="277" y="409" xlink:href="#r0"/><use x="288" y="409" xlink:href="#r0"/><use x="299" y="409" xlink:href="#r0"/><use x="310" y="409" xlink:href="#r0"/><use x="321" y="409" xlink:href="#r0"/><use x="332" y="409" xlink:href="#r0"/><use x="343" y="409" xlink:href="#r0"/><use x="365" y="409" xlink:href="#r0"/><use x="376" y="409" xlink:href="#r0"/><use x="398" y="409" xlink:href="#r0"/><use x="409" y="409" xlink:href="#r0"/><use x="46" y="420" xlink:href="#r0"/><use x="68" y="420" xlink:href="#r0"/><use x="79" y="420" xlink:href="#r0"/><use x="90" y="420" xlink:href="#r0"/><use x="112" y="420" xlink:href="#r0"/><use x="134" y="420" xlink:href="#r0"/><use x="156" y="420" xlink:href="#r0"/><use x="200" y="420" xlink:href="#r0"/><use x="211" y="420" xlink:href="#r0"/><use x="222" y="420" xlink:href="#r0"/><use x="233" y="420" xlink:href="#r0"/><use x="277" y="420" xlink:href="#r0"/><use x="288" y="420" xlink:href="#r0"/><use x="310" y="420" xlink:href="#r0"/><use x="332" y="420" xlink:href="#r0"/><use x="354" y="420" xlink:href="#r0"/><use x="387" y="420" xlink:href="#r0"/><use x="431" y="420" xlink:href="#r0"/><use x="442" y="420" xlink:href="#r0"/><use x="46" y="431" xlink:href="#r0"/><use x="112" y="431" xlink:href="#r0"/><use x="134" y="431" xlink:href="#r0"/><use x="167" y="431" xlink:href="#r0"/><use x="178" y="431" xlink:href="#r0"/><use x="200" y="431" xlink:href="#r0"/><use x="222" y="431" xlink:href="#r0"/><use x="244" y="431" xlink:href="#r0"/><use x="255" y="431" xlink:href="#r0"/><use x="266" y="431" xlink:href="#r0"/><use x="277" y="431" xlink:href="#r0"/><use x="288" y="431" xlink:href="#r0"/><use x="332" y="431" xlink:href="#r0"/><use x="343" y="431" xlink:href="#r0"/><use x="354" y="431" xlink:href="#r0"/><use x="365" y="431" xlink:href="#r0"/><use x="376" y="431" xlink:href="#r0"/><use x="442" y="431" xlink:href="#r0"/><use x="46" y="442" xlink:href="#r0"/><use x="57" y="442" xlink:href="#r0"/><use x="68" y="442" xlink:href="#r0"/><use x="79" y="442" xlink:href="#r0"/><use x="90" y="442" xlink:href="#r0"/><use x="101" y="442" xlink:href="#r0"/><use x="112" y="442" xlink:href="#r0"/><use x="134" y="442" xlink:href="#r0"/><use x="145" y="442" xlink:href="#r0"/><use x="156" y="442" xlink:href="#r0"/><use x="167" y="442" xlink:href="#r0"/><use x="178" y="442" xlink:href="#r0"/><use x="200" y="442" xlink:href="#r0"/><use x="211" y="442" xlink:href="#r0"/><use x="222" y="442" xlink:href="#r0"/><use x="266" y="442" xlink:href="#r0"/><use x="277" y="442" xlink:href="#r0"/><use x="288" y="442" xlink:href="#r0"/><use x="310" y="442" xlink:href="#r0"/><use x="321" y="442" xlink:href="#r0"/><use x="365" y="442" xlink:href="#r0"/><use x="376" y="442" xlink:href="#r0"/><use x="387" y="442" xlink:href="#r0"/><use x="398" y="442" xlink:href="#r0"/><use x="409" y="442" xlink:href="#r0"/><use x="420" y="442" xlink:href="#r0"/><use x="431" y="442" xlink:href="#r0"/><use x="442" y="442" xlink:href="#r0"/></svg>
