<?xml version="1.0" encoding="UTF-8"?>
<svg xmlns="http://www.w3.org/2000/svg" xmlns:xlink="http://www.w3.org/1999/xlink" version="1.1" width="300px" height="300px" viewBox="0 0 300 300"><defs><rect id="r0" width="6" height="6" fill="#000000"/></defs><rect x="0" y="0" width="300" height="300" fill="#fefefe"/><use x="39" y="39" xlink:href="#r0"/><use x="45" y="39" xlink:href="#r0"/><use x="51" y="39" xlink:href="#r0"/><use x="57" y="39" xlink:href="#r0"/><use x="63" y="39" xlink:href="#r0"/><use x="69" y="39" xlink:href="#r0"/><use x="75" y="39" xlink:href="#r0"/><use x="93" y="39" xlink:href="#r0"/><use x="123" y="39" xlink:href="#r0"/><use x="147" y="39" xlink:href="#r0"/><use x="159" y="39" xlink:href="#r0"/><use x="189" y="39" xlink:href="#r0"/><use x="207" y="39" xlink:href="#r0"/><use x="219" y="39" xlink:href="#r0"/><use x="225" y="39" xlink:href="#r0"/><use x="231" y="39" xlink:href="#r0"/><use x="237" y="39" xlink:href="#r0"/><use x="243" y="39" xlink:href="#r0"/><use x="249" y="39" xlink:href="#r0"/><use x="255" y="39" xlink:href="#r0"/><use x="39" y="45" xlink:href="#r0"/><use x="75" y="45" xlink:href="#r0"/><use x="87" y="45" xlink:href="#r0"/><use x="93" y="45" xlink:href="#r0"/><use x="105" y="45" xlink:href="#r0"/><use x="111" y="45" xlink:href="#r0"/><use x="123" y="45" xlink:href="#r0"/><use x="129" y="45" xlink:href="#r0"/><use x="135" y="45" xlink:href="#r0"/><use x="141" y="45" xlink:href="#r0"/><use x="159" y="45" xlink:href="#r0"/><use x="165" y="45" xlink:href="#r0"/><use x="171" y="45" xlink:href="#r0"/><use x="201" y="45" xlink:href="#r0"/><use x="207" y="45" xlink:href="#r0"/><use x="219" y="45" xlink:href="#r0"/><use x="255" y="45" xlink:href="#r0"/><use x="39" y="51" xlink:href="#r0"/><use x="51" y="51" xlink:href="#r0"/><use x="57" y="51" xlink:href="#r0"/><use x="63" y="51" xlink:href="#r0"/><use x="75" y="51" xlink:href="#r0"/><use x="93" y="51" xlink:href="#r0"/><use x="99" y="51" xlink:href="#r0"/><use x="105" y="51" xlink:href="#r0"/><use x="129" y="51" xlink:href="#r0"/><use x="159" y="51" xlink:href="#r0"/><use x="165" y="51" xlink:href="#r0"/><use x="171" y="51" xlink:href="#r0"/><use x="219" y="51" xlink:href="#r0"/><use x="231" y="51" xlink:href="#r0"/><use x="237" y="51" xlink:href="#r0"/><use x="243" y="51" xlink:href="#r0"/><use x="255" y="51" xlink:href="#r0"/><use x="39" y="57" xlink:href="#r0"/><use x="51" y="57" xlink:href="#r0"/><use x="57" y="57" xlink:href="#r0"/><use x="63" y="57" xlink:href="#r0"/><use x="75" y="57" xlink:href="#r0"/><use x="87" y="57" xlink:href="#r0"/><use x="93" y="57" xlink:href="#r0"/><use x="105" y="57" xlink:href="#r0"/><use x="117" y="57" xlink:href="#r0"/><use x="129" y="57" xlink:href="#r0"/><use x="135" y="57" xlink:href="#r0"/><use x="141" y="57" xlink:href="#r0"/><use x="159" y="57" xlink:href="#r0"/><use x="189" y="57" xlink:href="#r0"/><use x="195" y="57" xlink:href="#r0"/><use x="201" y="57" xlink:href="#r0"/><use x="219" y="57" xlink:href="#r0"/><use x="231" y="57" xlink:href="#r0"/><use x="237" y="57" xlink:href="#r0"/><use x="243" y="57" xlink:href="#r0"/><use x="255" y="57" xlink:href="#r0"/><use x="39" y="63" xlink:href="#r0"/><use x="51" y="63" xlink:href="#r0"/><use x="57" y="63" xlink:href="#r0"/><use x="63" y="63" xlink:href="#r0"/><use x="75" y="63" xlink:href="#r0"/><use x="99" y="63" xlink:href="#r0"/><use x="111" y="63" xlink:href="#r0"/><use x="123" y="63" xlink:href="#r0"/><use x="153" y="63" xlink:href="#r0"/><use x="165" y="63" xlink:href="#r0"/><use x="171" y="63" xlink:href="#r0"/><use x="177" y="63" xlink:href="#r0"/><use x="183" y="63" xlink:href="#r0"/><use x="201" y="63" xlink:href="#r0"/><use x="207" y="63" xlink:href="#r0"/><use x="219" y="63" xlink:href="#r0"/><use x="231" y="63" xlink:href="#r0"/><use x="237" y="63" xlink:href="#r0"/><use x="243" y="63" xlink:href="#r0"/><use x="255" y="63" xlink:href="#r0"/><use x="39" y="69" xlink:href="#r0"/><use x="75" y="69" xlink:href="#r0"/><use x="87" y="69" xlink:href="#r0"/><use x="99" y="69" xlink:href="#r0"/><use x="117" y="69" xlink:href="#r0"/><use x="129" y="69" xlink:href="#r0"/><use x="135" y="69" xlink:href="#r0"/><use x="165" y="69" xlink:href="#r0"/><use x="171" y="69" xlink:href="#r0"/><use x="195" y="69" xlink:href="#r0"/><use x="201" y="69" xlink:href="#r0"/><use x="207" y="69" xlink:href="#r0"/><use x="219" y="69" xlink:href="#r0"/><use x="255" y="69" xlink:href="#r0"/><use x="39" y="75" xlink:href="#r0"/><use x="45" y="75" xlink:href="#r0"/><use x="51" y="75" xlink:href="#r0"/><use x="57" y="75" xlink:href="#r0"/><use x="63" y="75" xlink:href="#r0"/><use x="69" y="75" xlink:href="#r0"/><use x="75" y="75" xlink:href="#r0"/><use x="87" y="75" xlink:href="#r0"/><use x="99" y="75" xlink:href="#r0"/><use x="111" y="75" xlink:href="#r0"/><use x="123" y="75" xlink:href="#r0"/><use x="135" y="75" xlink:href="#r0"/><use x="147" y="75" xlink:href="#r0"/><use x="159" y="75" xlink:href="#r0"/><use x="171" y="75" xlink:href="#r0"/><use x="183" y="75" xlink:href="#r0"/><use x="195" y="75" xlink:href="#r0"/><use x="207" y="75" xlink:href="#r0"/><use x="219" y="75" xlink:href="#r0"/><use x="225" y="75" xlink:href="#r0"/><use x="231" y="75" xlink:href="#r0"/><use x="237" y="75" xlink:href="#r0"/><use x="243" y="75" xlink:href="#r0"/><use x="249" y="75" xlink:href="#r0"/><use x="255" y="75" xlink:href="#r0"/><use x="111" y="81" xlink:href="#r0"/><use x="129" y="81" xlink:href="#r0"/><use x="165" y="81" xlink:href="#r0"/><use x="177" y="81" xlink:href="#r0"/><use x="183" y="81" xlink:href="#r0"/><use x="195" y="81" xlink:href="#r0"/><use x="39" y="87" xlink:href="#r0"/><use x="45" y="87" xlink:href="#r0"/><use x="51" y="87" xlink:href="#r0"/><use x="57" y="87" xlink:href="#r0"/><use x="63" y="87" xlink:href="#r0"/><use x="75" y="87" xlink:href="#r0"/><use x="81" y="87" xlink:href="#r0"/><use x="87" y="87" xlink:href="#r0"/><use x="93" y="87" xlink:href="#r0"/><use x="99" y="87" xlink:href="#r0"/><use x="111" y="87" xlink:href="#r0"/><use x="123" y="87" xlink:href="#r0"/><use x="141" y="87" xlink:href="#r0"/><use x="153" y="87" xlink:href="#r0"/><use x="171" y="87" xlink:href="#r0"/><use x="177" y="87" xlink:href="#r0"/><use x="183" y="87" xlink:href="#r0"/><use x="189" y="87" xlink:href="#r0"/><use x="195" y="87" xlink:href="#r0"/><use x="213" y="87" xlink:href="#r0"/><use x="225" y="87" xlink:href="#r0"/><use x="237" y="87" xlink:href="#r0"/><use x="249" y="87" xlink:href="#r0"/><use x="57" y="93" xlink:href="#r0"/><use x="69" y="93" xlink:href="#r0"/><use x="93" y="93" xlink:href="#r0"/><use x="123" y="93" xlink:href="#r0"/><use x="135" y="93" xlink:href="#r0"/><use x="141" y="93" xlink:href="#r0"/><use x="147" y="93" xlink:href="#r0"/><use x="153" y="93" xlink:href="#r0"/><use x="159" y="93" xlink:href="#r0"/><use x="207" y="93" xlink:href="#r0"/><use x="225" y="93" xlink:href="#r0"/><use x="237" y="93" xlink:href="#r0"/><use x="243" y="93" xlink:href="#r0"/><use x="249" y="93" xlink:href="#r0"/><use x="39" y="99" xlink:href="#r0"/><use x="51" y="99" xlink:href="#r0"/><use x="75" y="99" xlink:href="#r0"/><use x="81" y="99" xlink:href="#r0"/><use x="99" y="99" xlink:href="#r0"/><use x="105" y="99" xlink:href="#r0"/><use x="111" y="99" xlink:href="#r0"/><use x="117" y="99" xlink:href="#r0"/><use x="129" y="99" xlink:href="#r0"/><use x="165" y="99" xlink:href="#r0"/><use x="171" y="99" xlink:href="#r0"/><use x="183" y="99" xlink:href="#r0"/><use x="189" y="99" xlink:href="#r0"/><use x="201" y="99" xlink:href="#r0"/><use x="207" y="99" xlink:href="#r0"/><use x="213" y="99" xlink:href="#r0"/><use x="225" y="99" xlink:href="#r0"/><use x="231" y="99" xlink:href="#r0"/><use x="237" y="99" xlink:href="#r0"/><use x="243" y="99" xlink:href="#r0"/><use x="255" y="99" xlink:href="#r0"/><use x="57" y="105" xlink:href="#r0"/><use x="63" y="105" xlink:href="#r0"/><use x="81" y="105" xlink:href="#r0"/><use x="93" y="105" xlink:href="#r0"/><use x="105" y="105" xlink:href="#r0"/><use x="123" y="105" xlink:href="#r0"/><use x="153" y="105" xlink:href="#r0"/><use x="159" y="105" xlink:href="#r0"/><use x="165" y="105" xlink:href="#r0"/><use x="195" y="105" xlink:href="#r0"/><use x="219" y="105" xlink:href="#r0"/><use x="225" y="105" xlink:href="#r0"/><use x="231" y="105" xlink:href="#r0"/><use x="237" y="105" xlink:href="#r0"/><use x="249" y="105" xlink:href="#r0"/><use x="45" y="111" xlink:href="#r0"/><use x="63" y="111" xlink:href="#r0"/><use x="69" y="111" xlink:href="#r0"/><use x="75" y="111" xlink:href="#r0"/><use x="81" y="111" xlink:href="#r0"/><use x="87" y="111" xlink:href="#r0"/><use x="93" y="111" xlink:href="#r0"/><use x="105" y="111" xlink:href="#r0"/><use x="111" y="111" xlink:href="#r0"/><use x="117" y="111" xlink:href="#r0"/><use x="123" y="111" xlink:href="#r0"/><use x="129" y="111" xlink:href="#r0"/><use x="135" y="111" xlink:href="#r0"/><use x="141" y="111" xlink:href="#r0"/><use x="165" y="111" xlink:href="#r0"/><use x="171" y="111" xlink:href="#r0"/><use x="183" y="111" xlink:href="#r0"/><use x="189" y="111" xlink:href="#r0"/><use x="195" y="111" xlink:href="#r0"/><use x="201" y="111" xlink:href="#r0"/><use x="213" y="111" xlink:href="#r0"/><use x="219" y="111" xlink:href="#r0"/><use x="231" y="111" xlink:href="#r0"/><use x="237" y="111" xlink:href="#r0"/><use x="243" y="111" xlink:href="#r0"/><use x="255" y="111" xlink:href="#r0"/><use x="39" y="117" xlink:href="#r0"/><use x="81" y="117" xlink:href="#r0"/><use x="87" y="117" xlink:href="#r0"/><use x="93" y="117" xlink:href="#r0"/><use x="111" y="117" xlink:href="#r0"/><use x="117" y="117" xlink:href="#r0"/><use x="129" y="117" xlink:href="#r0"/><use x="135" y="117" xlink:href="#r0"/><use x="141" y="117" xlink:href="#r0"/><use x="153" y="117" xlink:href="#r0"/><use x="159" y="117" xlink:href="#r0"/><use x="165" y="117" xlink:href="#r0"/><use x="177" y="117" xlink:href="#r0"/><use x="183" y="117" xlink:href="#r0"/><use x="189" y="117" xlink:href="#r0"/><use x="207" y="117" xlink:href="#r0"/><use x="243" y="117" xlink:href="#r0"/><use x="249" y="117" xlink:href="#r0"/><use x="39" y="123" xlink:href="#r0"/><use x="45" y="123" xlink:href="#r0"/><use x="51" y="123" xlink:href="#r0"/><use x="63" y="123" xlink:href="#r0"/><use x="75" y="123" xlink:href="#r0"/><use x="87" y="123" xlink:href="#r0"/><use x="99" y="123" xlink:href="#r0"/><use x="123" y="123" xlink:href="#r0"/><use x="129" y="123" xlink:href="#r0"/><use x="135" y="123" xlink:href="#r0"/><use x="147" y="123" xlink:href="#r0"/><use x="159" y="123" xlink:href="#r0"/><use x="183" y="123" xlink:href="#r0"/><use x="189" y="123" xlink:href="#r0"/><use x="201" y="123" xlink:href="#r0"/><use x="207" y="123" xlink:href="#r0"/><use x="219" y="123" xlink:href="#r0"/><use x="243" y="123" xlink:href="#r0"/><use x="249" y="123" xlink:href="#r0"/><use x="255" y="123" xlink:href="#r0"/><use x="45" y="129" xlink:href="#r0"/><use x="57" y="129" xlink:href="#r0"/><use x="69" y="129" xlink:href="#r0"/><use x="93" y="129" xlink:href="#r0"/><use x="105" y="129" xlink:href="#r0"/><use x="111" y="129" xlink:href="#r0"/><use x="123" y="129" xlink:href="#r0"/><use x="129" y="129" xlink:href="#r0"/><use x="135" y="129" xlink:href="#r0"/><use x="147" y="129" xlink:href="#r0"/><use x="153" y="129" xlink:href="#r0"/><use x="165" y="129" xlink:href="#r0"/><use x="171" y="129" xlink:href="#r0"/><use x="183" y="129" xlink:href="#r0"/><use x="195" y="129" xlink:href="#r0"/><use x="201" y="129" xlink:href="#r0"/><use x="213" y="129" xlink:href="#r0"/><use x="219" y="129" xlink:href="#r0"/><use x="225" y="129" xlink:href="#r0"/><use x="237" y="129" xlink:href="#r0"/><use x="255" y="129" xlink:href="#r0"/><use x="45" y="135" xlink:href="#r0"/><use x="57" y="135" xlink:href="#r0"/><use x="69" y="135" xlink:href="#r0"/><use x="75" y="135" xlink:href="#r0"/><use x="81" y="135" xlink:href="#r0"/><use x="87" y="135" xlink:href="#r0"/><use x="93" y="135" xlink:href="#r0"/><use x="99" y="135" xlink:href="#r0"/><use x="105" y="135" xlink:href="#r0"/><use x="111" y="135" xlink:href="#r0"/><use x="117" y="135" xlink:href="#r0"/><use x="129" y="135" xlink:href="#r0"/><use x="141" y="135" xlink:href="#r0"/><use x="165" y="135" xlink:href="#r0"/><use x="171" y="135" xlink:href="#r0"/><use x="189" y="135" xlink:href="#r0"/><use x="213" y="135" xlink:href="#r0"/><use x="219" y="135" xlink:href="#r0"/><use x="225" y="135" xlink:href="#r0"/><use x="231" y="135" xlink:href="#r0"/><use x="237" y="135" xlink:href="#r0"/><use x="243" y="135" xlink:href="#r0"/><use x="255" y="135" xlink:href="#r0"/><use x="63" y="141" xlink:href="#r0"/><use x="81" y="141" xlink:href="#r0"/><use x="123" y="141" xlink:href="#r0"/><use x="129" y="141" xlink:href="#r0"/><use x="135" y="141" xlink:href="#r0"/><use x="141" y="141" xlink:href="#r0"/><use x="147" y="141" xlink:href="#r0"/><use x="159" y="141" xlink:href="#r0"/><use x="165" y="141" xlink:href="#r0"/><use x="177" y="141" xlink:href="#r0"/><use x="183" y="141" xlink:href="#r0"/><use x="189" y="141" xlink:href="#r0"/><use x="195" y="141" xlink:href="#r0"/><use x="207" y="141" xlink:href="#r0"/><use x="213" y="141" xlink:href="#r0"/><use x="225" y="141" xlink:href="#r0"/><use x="243" y="141" xlink:href="#r0"/><use x="249" y="141" xlink:href="#r0"/><use x="51" y="147" xlink:href="#r0"/><use x="57" y="147" xlink:href="#r0"/><use x="63" y="147" xlink:href="#r0"/><use x="69" y="147" xlink:href="#r0"/><use x="75" y="147" xlink:href="#r0"/><use x="81" y="147" xlink:href="#r0"/><use x="87" y="147" xlink:href="#r0"/><use x="93" y="147" xlink:href="#r0"/><use x="99" y="147" xlink:href="#r0"/><use x="117" y="147" xlink:href="#r0"/><use x="123" y="147" xlink:href="#r0"/><use x="129" y="147" xlink:href="#r0"/><use x="147" y="147" xlink:href="#r0"/><use x="159" y="147" xlink:href="#r0"/><use x="189" y="147" xlink:href="#r0"/><use x="195" y="147" xlink:href="#r0"/><use x="201" y="147" xlink:href="#r0"/><use x="207" y="147" xlink:href="#r0"/><use x="219" y="147" xlink:href="#r0"/><use x="225" y="147" xlink:href="#r0"/><use x="231" y="147" xlink:href="#r0"/><use x="243" y="147" xlink:href="#r0"/><use x="249" y="147" xlink:href="#r0"/><use x="255" y="147" xlink:href="#r0"/><use x="39" y="153" xlink:href="#r0"/><use x="51" y="153" xlink:href="#r0"/><use x="63" y="153" xlink:href="#r0"/><use x="69" y="153" xlink:href="#r0"/><use x="81" y="153" xlink:href="#r0"/><use x="87" y="153" xlink:href="#r0"/><use x="93" y="153" xlink:href="#r0"/><use x="99" y="153" xlink:href="#r0"/><use x="111" y="153" xlink:href="#r0"/><use x="123" y="153" xlink:href="#r0"/><use x="129" y="153" xlink:href="#r0"/><use x="135" y="153" xlink:href="#r0"/><use x="147" y="153" xlink:href="#r0"/><use x="165" y="153" xlink:href="#r0"/><use x="183" y="153" xlink:href="#r0"/><use x="195" y="153" xlink:href="#r0"/><use x="201" y="153" xlink:href="#r0"/><use x="207" y="153" xlink:href="#r0"/><use x="255" y="153" xlink:href="#r0"/><use x="39" y="159" xlink:href="#r0"/><use x="51" y="159" xlink:href="#r0"/><use x="63" y="159" xlink:href="#r0"/><use x="75" y="159" xlink:href="#r0"/><use x="81" y="159" xlink:href="#r0"/><use x="87" y="159" xlink:href="#r0"/><use x="111" y="159" xlink:href="#r0"/><use x="123" y="159" xlink:href="#r0"/><use x="129" y="159" xlink:href="#r0"/><use x="135" y="159" xlink:href="#r0"/><use x="141" y="159" xlink:href="#r0"/><use x="147" y="159" xlink:href="#r0"/><use x="171" y="159" xlink:href="#r0"/><use x="189" y="159" xlink:href="#r0"/><use x="195" y="159" xlink:href="#r0"/><use x="201" y="159" xlink:href="#r0"/><use x="207" y="159" xlink:href="#r0"/><use x="213" y="159" xlink:href="#r0"/><use x="219" y="159" xlink:href="#r0"/><use x="225" y="159" xlink:href="#r0"/><use x="231" y="159" xlink:href="#r0"/><use x="237" y="159" xlink:href="#r0"/><use x="243" y="159" xlink:href="#r0"/><use x="249" y="159" xlink:href="#r0"/><use x="255" y="159" xlink:href="#r0"/><use x="39" y="165" xlink:href="#r0"/><use x="57" y="165" xlink:href="#r0"/><use x="63" y="165" xlink:href="#r0"/><use x="81" y="165" xlink:href="#r0"/><use x="87" y="165" xlink:href="#r0"/><use x="93" y="165" xlink:href="#r0"/><use x="99" y="165" xlink:href="#r0"/><use x="105" y="165" xlink:href="#r0"/><use x="117" y="165" xlink:href="#r0"/><use x="129" y="165" xlink:href="#r0"/><use x="135" y="165" xlink:href="#r0"/><use x="153" y="165" xlink:href="#r0"/><use x="159" y="165" xlink:href="#r0"/><use x="165" y="165" xlink:href="#r0"/><use x="171" y="165" xlink:href="#r0"/><use x="177" y="165" xlink:href="#r0"/><use x="183" y="165" xlink:href="#r0"/><use x="189" y="165" xlink:href="#r0"/><use x="207" y="165" xlink:href="#r0"/><use x="225" y="165" xlink:href="#r0"/><use x="243" y="165" xlink:href="#r0"/><use x="249" y="165" xlink:href="#r0"/><use x="45" y="171" xlink:href="#r0"/><use x="69" y="171" xlink:href="#r0"/><use x="75" y="171" xlink:href="#r0"/><use x="81" y="171" xlink:href="#r0"/><use x="111" y="171" xlink:href="#r0"/><use x="123" y="171" xlink:href="#r0"/><use x="129" y="171" xlink:href="#r0"/><use x="141" y="171" xlink:href="#r0"/><use x="165" y="171" xlink:href="#r0"/><use x="183" y="171" xlink:href="#r0"/><use x="189" y="171" xlink:href="#r0"/><use x="201" y="171" xlink:href="#r0"/><use x="207" y="171" xlink:href="#r0"/><use x="219" y="171" xlink:href="#r0"/><use x="225" y="171" xlink:href="#r0"/><use x="231" y="171" xlink:href="#r0"/><use x="237" y="171" xlink:href="#r0"/><use x="249" y="171" xlink:href="#r0"/><use x="255" y="171" xlink:href="#r0"/><use x="39" y="177" xlink:href="#r0"/><use x="45" y="177" xlink:href="#r0"/><use x="51" y="177" xlink:href="#r0"/><use x="57" y="177" xlink:href="#r0"/><use x="81" y="177" xlink:href="#r0"/><use x="99" y="177" xlink:href="#r0"/><use x="111" y="177" xlink:href="#r0"/><use x="165" y="177" xlink:href="#r0"/><use x="195" y="177" xlink:href="#r0"/><use x="201" y="177" xlink:href="#r0"/><use x="213" y="177" xlink:href="#r0"/><use x="219" y="177" xlink:href="#r0"/><use x="225" y="177" xlink:href="#r0"/><use x="231" y="177" xlink:href="#r0"/><use x="255" y="177" xlink:href="#r0"/><use x="51" y="183" xlink:href="#r0"/><use x="75" y="183" xlink:href="#r0"/><use x="93" y="183" xlink:href="#r0"/><use x="105" y="183" xlink:href="#r0"/><use x="117" y="183" xlink:href="#r0"/><use x="123" y="183" xlink:href="#r0"/><use x="135" y="183" xlink:href="#r0"/><use x="141" y="183" xlink:href="#r0"/><use x="159" y="183" xlink:href="#r0"/><use x="165" y="183" xlink:href="#r0"/><use x="171" y="183" xlink:href="#r0"/><use x="183" y="183" xlink:href="#r0"/><use x="189" y="183" xlink:href="#r0"/><use x="195" y="183" xlink:href="#r0"/><use x="201" y="183" xlink:href="#r0"/><use x="207" y="183" xlink:href="#r0"/><use x="213" y="183" xlink:href="#r0"/><use x="219" y="183" xlink:href="#r0"/><use x="231" y="183" xlink:href="#r0"/><use x="237" y="183" xlink:href="#r0"/><use x="243" y="183" xlink:href="#r0"/><use x="249" y="183" xlink:href="#r0"/><use x="255" y="183" xlink:href="#r0"/><use x="39" y="189" xlink:href="#r0"/><use x="57" y="189" xlink:href="#r0"/><use x="63" y="189" xlink:href="#r0"/><use x="69" y="189" xlink:href="#r0"/><use x="81" y="189" xlink:href="#r0"/><use x="87" y="189" xlink:href="#r0"/><use x="123" y="189" xlink:href="#r0"/><use x="135" y="189" xlink:href="#r0"/><use x="159" y="189" xlink:href="#r0"/><use x="165" y="189" xlink:href="#r0"/><use x="177" y="189" xlink:href="#r0"/><use x="183" y="189" xlink:href="#r0"/><use x="207" y="189" xlink:href="#r0"/><use x="213" y="189" xlink:href="#r0"/><use x="225" y="189" xlink:href="#r0"/><use x="243" y="189" xlink:href="#r0"/><use x="249" y="189" xlink:href="#r0"/><use x="39" y="195" xlink:href="#r0"/><use x="51" y="195" xlink:href="#r0"/><use x="69" y="195" xlink:href="#r0"/><use x="75" y="195" xlink:href="#r0"/><use x="87" y="195" xlink:href="#r0"/><use x="111" y="195" xlink:href="#r0"/><use x="117" y="195" xlink:href="#r0"/><use x="129" y="195" xlink:href="#r0"/><use x="135" y="195" xlink:href="#r0"/><use x="171" y="195" xlink:href="#r0"/><use x="195" y="195" xlink:href="#r0"/><use x="201" y="195" xlink:href="#r0"/><use x="207" y="195" xlink:href="#r0"/><use x="213" y="195" xlink:href="#r0"/><use x="219" y="195" xlink:href="#r0"/><use x="243" y="195" xlink:href="#r0"/><use x="249" y="195" xlink:href="#r0"/><use x="255" y="195" xlink:href="#r0"/><use x="39" y="201" xlink:href="#r0"/><use x="69" y="201" xlink:href="#r0"/><use x="87" y="201" xlink:href="#r0"/><use x="93" y="201" xlink:href="#r0"/><use x="105" y="201" xlink:href="#r0"/><use x="111" y="201" xlink:href="#r0"/><use x="129" y="201" xlink:href="#r0"/><use x="135" y="201" xlink:href="#r0"/><use x="147" y="201" xlink:href="#r0"/><use x="153" y="201" xlink:href="#r0"/><use x="165" y="201" xlink:href="#r0"/><use x="183" y="201" xlink:href="#r0"/><use x="195" y="201" xlink:href="#r0"/><use x="207" y="201" xlink:href="#r0"/><use x="231" y="201" xlink:href="#r0"/><use x="255" y="201" xlink:href="#r0"/><use x="39" y="207" xlink:href="#r0"/><use x="51" y="207" xlink:href="#r0"/><use x="63" y="207" xlink:href="#r0"/><use x="75" y="207" xlink:href="#r0"/><use x="87" y="207" xlink:href="#r0"/><use x="111" y="207" xlink:href="#r0"/><use x="117" y="207" xlink:href="#r0"/><use x="141" y="207" xlink:href="#r0"/><use x="171" y="207" xlink:href="#r0"/><use x="177" y="207" xlink:href="#r0"/><use x="189" y="207" xlink:href="#r0"/><use x="195" y="207" xlink:href="#r0"/><use x="207" y="207" xlink:href="#r0"/><use x="213" y="207" xlink:href="#r0"/><use x="219" y="207" xlink:href="#r0"/><use x="225" y="207" xlink:href="#r0"/><use x="231" y="207" xlink:href="#r0"/><use x="237" y="207" xlink:href="#r0"/><use x="243" y="207" xlink:href="#r0"/><use x="87" y="213" xlink:href="#r0"/><use x="93" y="213" xlink:href="#r0"/><use x="99" y="213" xlink:href="#r0"/><use x="105" y="213" xlink:href="#r0"/><use x="123" y="213" xlink:href="#r0"/><use x="129" y="213" xlink:href="#r0"/><use x="135" y="213" xlink:href="#r0"/><use x="141" y="213" xlink:href="#r0"/><use x="147" y="213" xlink:href="#r0"/><use x="153" y="213" xlink:href="#r0"/><use x="159" y="213" xlink:href="#r0"/><use x="165" y="213" xlink:href="#r0"/><use x="177" y="213" xlink:href="#r0"/><use x="189" y="213" xlink:href="#r0"/><use x="195" y="213" xlink:href="#r0"/><use x="201" y="213" xlink:href="#r0"/><use x="207" y="213" xlink:href="#r0"/><use x="231" y="213" xlink:href="#r0"/><use x="237" y="213" xlink:href="#r0"/><use x="39" y="219" xlink:href="#r0"/><use x="45" y="219" xlink:href="#r0"/><use x="51" y="219" xlink:href="#r0"/><use x="57" y="219" xlink:href="#r0"/><use x="63" y="219" xlink:href="#r0"/><use x="69" y="219" xlink:href="#r0"/><use x="75" y="219" xlink:href="#r0"/><use x="87" y="219" xlink:href="#r0"/><use x="93" y="219" xlink:href="#r0"/><use x="129" y="219" xlink:href="#r0"/><use x="135" y="219" xlink:href="#r0"/><use x="165" y="219" xlink:href="#r0"/><use x="183" y="219" xlink:href="#r0"/><use x="207" y="219" xlink:href="#r0"/><use x="219" y="219" xlink:href="#r0"/><use x="231" y="219" xlink:href="#r0"/><use x="243" y="219" xlink:href="#r0"/><use x="249" y="219" xlink:href="#r0"/><use x="255" y="219" xlink:href="#r0"/><use x="39" y="225" xlink:href="#r0"/><use x="75" y="225" xlink:href="#r0"/><use x="99" y="225" xlink:href="#r0"/><use x="111" y="225" xlink:href="#r0"/><use x="123" y="225" xlink:href="#r0"/><use x="153" y="225" xlink:href="#r0"/><use x="165" y="225" xlink:href="#r0"/><use x="171" y="225" xlink:href="#r0"/><use x="177" y="225" xlink:href="#r0"/><use x="183" y="225" xlink:href="#r0"/><use x="195" y="225" xlink:href="#r0"/><use x="201" y="225" xlink:href="#r0"/><use x="207" y="225" xlink:href="#r0"/><use x="231" y="225" xlink:href="#r0"/><use x="249" y="225" xlink:href="#r0"/><use x="255" y="225" xlink:href="#r0"/><use x="39" y="231" xlink:href="#r0"/><use x="51" y="231" xlink:href="#r0"/><use x="57" y="231" xlink:href="#r0"/><use x="63" y="231" xlink:href="#r0"/><use x="75" y="231" xlink:href="#r0"/><use x="87" y="231" xlink:href="#r0"/><use x="93" y="231" xlink:href="#r0"/><use x="99" y="231" xlink:href="#r0"/><use x="111" y="231" xlink:href="#r0"/><use x="117" y="231" xlink:href="#r0"/><use x="123" y="231" xlink:href="#r0"/><use x="129" y="231" xlink:href="#r0"/><use x="135" y="231" xlink:href="#r0"/><use x="159" y="231" xlink:href="#r0"/><use x="189" y="231" xlink:href="#r0"/><use x="201" y="231" xlink:href="#r0"/><use x="207" y="231" xlink:href="#r0"/><use x="213" y="231" xlink:href="#r0"/><use x="219" y="231" xlink:href="#r0"/><use x="225" y="231" xlink:href="#r0"/><use x="231" y="231" xlink:href="#r0"/><use x="237" y="231" xlink:href="#r0"/><use x="243" y="231" xlink:href="#r0"/><use x="249" y="231" xlink:href="#r0"/><use x="255" y="231" xlink:href="#r0"/><use x="39" y="237" xlink:href="#r0"/><use x="51" y="237" xlink:href="#r0"/><use x="57" y="237" xlink:href="#r0"/><use x="63" y="237" xlink:href="#r0"/><use x="75" y="237" xlink:href="#r0"/><use x="87" y="237" xlink:href="#r0"/><use x="93" y="237" xlink:href="#r0"/><use x="105" y="237" xlink:href="#r0"/><use x="123" y="237" xlink:href="#r0"/><use x="135" y="237" xlink:href="#r0"/><use x="147" y="237" xlink:href="#r0"/><use x="153" y="237" xlink:href="#r0"/><use x="159" y="237" xlink:href="#r0"/><use x="177" y="237" xlink:href="#r0"/><use x="183" y="237" xlink:href="#r0"/><use x="189" y="237" xlink:href="#r0"/><use x="195" y="237" xlink:href="#r0"/><use x="201" y="237" xlink:href="#r0"/><use x="213" y="237" xlink:href="#r0"/><use x="219" y="237" xlink:href="#r0"/><use x="231" y="237" xlink:href="#r0"/><use x="237" y="237" xlink:href="#r0"/><use x="39" y="243" xlink:href="#r0"/><use x="51" y="243" xlink:href="#r0"/><use x="57" y="243" xlink:href="#r0"/><use x="63" y="243" xlink:href="#r0"/><use x="75" y="243" xlink:href="#r0"/><use x="87" y="243" xlink:href="#r0"/><use x="93" y="243" xlink:href="#r0"/><use x="111" y="243" xlink:href="#r0"/><use x="129" y="243" xlink:href="#r0"/><use x="141" y="243" xlink:href="#r0"/><use x="159" y="243" xlink:href="#r0"/><use x="171" y="243" xlink:href="#r0"/><use x="183" y="243" xlink:href="#r0"/><use x="195" y="243" xlink:href="#r0"/><use x="207" y="243" xlink:href="#r0"/><use x="225" y="243" xlink:href="#r0"/><use x="249" y="243" xlink:href="#r0"/><use x="255" y="243" xlink:href="#r0"/><use x="39" y="249" xlink:href="#r0"/><use x="75" y="249" xlink:href="#r0"/><use x="87" y="249" xlink:href="#r0"/><use x="93" y="249" xlink:href="#r0"/><use x="105" y="249" xlink:href="#r0"/><use x="111" y="249" xlink:href="#r0"/><use x="123" y="249" xlink:href="#r0"/><use x="135" y="249" xlink:href="#r0"/><use x="147" y="249" xlink:href="#r0"/><use x="153" y="249" xlink:href="#r0"/><use x="159" y="249" xlink:href="#r0"/><use x="165" y="249" xlink:href="#r0"/><use x="195" y="249" xlink:href="#r0"/><use x="201" y="249" xlink:href="#r0"/><use x="207" y="249" xlink:href="#r0"/><use x="213" y="249" xlink:href="#r0"/><use x="219" y="249" xlink:href="#r0"/><use x="255" y="249" xlink:href="#r0"/><use x="39" y="255" xlink:href="#r0"/><use x="45" y="255" xlink:href="#r0"/><use x="51" y="255" xlink:href="#r0"/><use x="57" y="255" xlink:href="#r0"/><use x="63" y="255" xlink:href="#r0"/><use x="69" y="255" xlink:href="#r0"/><use x="75" y="255" xlink:href="#r0"/><use x="87" y="255" xlink:href="#r0"/><use x="117" y="255" xlink:href="#r0"/><use x="123" y="255" xlink:href="#r0"/><use x="129" y="255" xlink:href="#r0"/><use x="135" y="255" xlink:href="#r0"/><use x="159" y="255" xlink:href="#r0"/><use x="183" y="255" xlink:href="#r0"/><use x="189" y="255" xlink:href="#r0"/><use x="213" y="255" xlink:href="#r0"/><use x="219" y="255" xlink:href="#r0"/><use x="225" y="255" xlink:href="#r0"/><use x="231" y="255" xlink:href="#r0"/><use x="237" y="255" xlink:href="#r0"/><use x="243" y="255" xlink:href="#r0"/><use x="249" y="255" xlink:href="#r0"/><use x="255" y="255" xlink:href="#r0"/></svg>
